<svg width="20" height="20" viewBox="0 0 20 20" fill="none" xmlns="http://www.w3.org/2000/svg">
    <g id="AiAvatar" clip-path="url(#clip0_4066_3175)">
        <path id="Vector 13"
            d="M1.6637 4.42772C-0.232309 2.1358 2.74369 -0.672219 4.8437 2.25569C5.1677 2.83568 5.71435 3.83984 5.91835 4.54778C5.19835 5.03984 4.38234 5.51987 3.78235 5.93978C3.42431 4.85599 2.6663 5.03297 2.07169 4.7484C1.92893 4.68008 1.79106 4.58168 1.6637 4.42772Z"
            fill="#F2F7FA" />
        <path id="Vector 13 (Stroke)" fill-rule="evenodd" clip-rule="evenodd"
            d="M2.79113 4.50144C2.83737 4.44081 2.8849 4.38011 2.93169 4.32221C2.96274 4.2838 2.99197 4.24847 3.01892 4.21671C3.30058 4.29865 3.62862 4.29086 3.90526 4.15863C4.11994 4.05602 4.31005 3.87371 4.40155 3.60389C4.46265 3.42369 4.47155 3.22905 4.43904 3.02704C4.50338 2.97233 4.57548 2.92324 4.66741 2.86833C4.91804 3.33147 5.20419 3.89257 5.38254 4.3652C5.12328 4.53623 4.85561 4.70596 4.59088 4.87384L4.56435 4.89066C4.36084 5.01972 4.15854 5.14813 3.96583 5.27391C3.90828 5.18423 3.84531 5.10296 3.77685 5.02949C3.59249 4.83165 3.3868 4.7102 3.18677 4.628C3.05175 4.57253 2.91335 4.53307 2.79113 4.50144ZM4.15644 2.1253C3.95659 2.24974 3.77423 2.39206 3.598 2.60355C3.499 2.72235 3.46793 2.88365 3.51573 3.03072C3.57432 3.21099 3.55644 3.29356 3.54922 3.31487C3.54509 3.32705 3.54095 3.33524 3.51713 3.34663C3.48492 3.36202 3.42734 3.3746 3.35372 3.36811C3.3106 3.36432 3.27367 3.355 3.24517 3.34445C3.20915 3.31243 3.16466 3.28374 3.10972 3.26136C2.99751 3.21565 2.8971 3.22534 2.84111 3.23671C2.78379 3.24834 2.7396 3.26832 2.71369 3.28152C2.62693 3.32571 2.55615 3.39387 2.52349 3.42574C2.43673 3.51042 2.33175 3.63271 2.2317 3.75652C2.14763 3.86054 2.05723 3.97792 1.97225 4.09355C1.22178 3.14496 1.48331 2.18288 2.03822 1.73397C2.32367 1.50306 2.69725 1.39412 3.1031 1.47808C3.41959 1.54355 3.78571 1.73334 4.15644 2.1253ZM3.17064 4.05279C3.17062 4.05284 3.16971 4.05363 3.16796 4.05501C3.16978 4.05342 3.17065 4.05274 3.17064 4.05279ZM3.28542 0.596737C3.96681 0.737691 4.63586 1.19365 5.20937 1.99327L5.22417 2.01391L5.23656 2.03608C5.55409 2.6045 6.12966 3.65578 6.35076 4.42303L6.44083 4.73561L6.17226 4.91916C5.81524 5.16315 5.43625 5.40347 5.07815 5.63055L5.04634 5.65071C4.67535 5.88598 4.33042 6.10532 4.04038 6.30831L3.54481 6.65514L3.35506 6.08079C3.28177 5.85894 3.19667 5.72703 3.11841 5.64305C3.04136 5.56037 2.95326 5.50507 2.8447 5.46046C2.73386 5.41492 2.61592 5.38527 2.45956 5.34596C2.44972 5.34349 2.43974 5.34098 2.4296 5.33843C2.271 5.29849 2.07156 5.24707 1.87743 5.15416L2.0717 4.74825L1.87743 5.15416C1.68049 5.0599 1.4891 4.92249 1.31696 4.71441C0.218208 3.38622 0.497284 1.82293 1.47217 1.03427C1.95623 0.642679 2.6019 0.455344 3.28542 0.596737Z"
            fill="#64698B" />
        <path id="Vector 13_2"
            d="M18.4651 4.42772C20.3611 2.1358 17.3851 -0.672219 15.2851 2.25569C14.9611 2.83568 14.4144 3.83984 14.2104 4.54778C14.9304 5.03984 15.7464 5.51987 16.3464 5.93978C16.7045 4.85599 17.4625 5.03297 18.0571 4.7484C18.1998 4.68008 18.3377 4.58168 18.4651 4.42772Z"
            fill="#F2F7FA" />
        <path id="Vector 13 (Stroke)_2" fill-rule="evenodd" clip-rule="evenodd"
            d="M17.3376 4.50144C17.2914 4.44081 17.2439 4.38011 17.1971 4.32221C17.166 4.2838 17.1368 4.24847 17.1099 4.21671C16.8282 4.29865 16.5002 4.29086 16.2235 4.15863C16.0088 4.05602 15.8187 3.87371 15.7272 3.60389C15.6661 3.42369 15.6572 3.22905 15.6897 3.02704C15.6254 2.97233 15.5533 2.92324 15.4614 2.86833C15.2107 3.33147 14.9246 3.89257 14.7462 4.3652C15.0055 4.53623 15.2732 4.70596 15.5379 4.87384L15.5644 4.89066C15.7679 5.01972 15.9702 5.14813 16.163 5.27391C16.2205 5.18423 16.2835 5.10296 16.3519 5.02949C16.5363 4.83165 16.742 4.7102 16.942 4.628C17.077 4.57253 17.2154 4.53307 17.3376 4.50144ZM15.9723 2.1253C16.1722 2.24974 16.3546 2.39206 16.5308 2.60355C16.6298 2.72235 16.6609 2.88365 16.6131 3.03072C16.5545 3.21099 16.5723 3.29356 16.5796 3.31487C16.5837 3.32705 16.5878 3.33524 16.6117 3.34663C16.6439 3.36202 16.7014 3.3746 16.7751 3.36811C16.8182 3.36432 16.8551 3.355 16.8836 3.34445C16.9196 3.31243 16.9641 3.28374 17.0191 3.26136C17.1313 3.21565 17.2317 3.22534 17.2877 3.23671C17.345 3.24834 17.3892 3.26832 17.4151 3.28152C17.5019 3.32571 17.5726 3.39387 17.6053 3.42574C17.692 3.51042 17.797 3.63271 17.8971 3.75652C17.9812 3.86054 18.0716 3.97792 18.1565 4.09355C18.907 3.14496 18.6455 2.18288 18.0906 1.73397C17.8051 1.50306 17.4315 1.39412 17.0257 1.47808C16.7092 1.54355 16.3431 1.73334 15.9723 2.1253ZM16.9581 4.05279C16.9582 4.05284 16.9591 4.05363 16.9608 4.05501C16.959 4.05342 16.9581 4.05274 16.9581 4.05279ZM16.8434 0.596737C16.162 0.737691 15.4929 1.19365 14.9194 1.99327L14.9046 2.01391L14.8922 2.03608C14.5747 2.6045 13.9991 3.65578 13.778 4.42303L13.688 4.73561L13.9565 4.91916C14.3135 5.16315 14.6925 5.40347 15.0506 5.63055L15.0824 5.65071C15.4534 5.88598 15.7984 6.10532 16.0884 6.30831L16.584 6.65514L16.7737 6.08079C16.847 5.85894 16.9321 5.72703 17.0104 5.64305C17.0874 5.56037 17.1755 5.50507 17.2841 5.46046C17.3949 5.41492 17.5129 5.38527 17.6692 5.34596C17.6791 5.34349 17.689 5.34098 17.6992 5.33843C17.8578 5.29849 18.0572 5.24707 18.2514 5.15416L18.0571 4.74825L18.2514 5.15416C18.4483 5.0599 18.6397 4.92249 18.8118 4.71441C19.9106 3.38622 19.6315 1.82293 18.6566 1.03427C18.1726 0.642679 17.5269 0.455344 16.8434 0.596737Z"
            fill="#64698B" />
        <path id="Ellipse 1"
            d="M18.782 11.2797C20.1143 18.9357 14.9304 19.4037 10.046 19.4037C5.16158 19.4037 0.163095 18.8157 1.11796 11.9037C1.92197 6.08374 5.16158 3.63574 10.046 3.63574C14.9304 3.63574 17.8652 6.01174 18.782 11.2797Z"
            fill="#F2F7FA" />
        <path id="Ellipse 1 (Stroke)" fill-rule="evenodd" clip-rule="evenodd"
            d="M4.34924 5.92475C2.93295 7.17208 1.95597 9.12584 1.56373 11.9651C1.33197 13.6428 1.46811 14.8914 1.84111 15.8244C2.21065 16.7487 2.8256 17.3961 3.61824 17.8564C5.24014 18.7983 7.59128 18.9535 10.046 18.9535C11.2634 18.9535 12.4768 18.9241 13.5957 18.7653C14.7161 18.6063 15.7124 18.3213 16.5089 17.8296C17.2947 17.3446 17.8996 16.6508 18.2392 15.636C18.5827 14.6096 18.6639 13.2259 18.3387 11.3567C17.8918 8.78885 16.9641 6.98712 15.6087 5.82347C14.2549 4.66113 12.4161 4.08555 10.046 4.08555C7.67777 4.08555 5.7648 4.67808 4.34924 5.92475ZM3.75441 5.24934C5.38076 3.81702 7.5298 3.18555 10.046 3.18555C12.5602 3.18555 14.6311 3.79797 16.195 5.14062C17.7573 6.48197 18.7554 8.50224 19.2253 11.2024C19.5662 13.1612 19.4991 14.707 19.0927 15.9216C18.6824 17.1478 17.9359 18.0065 16.9816 18.5955C16.0382 19.1778 14.9059 19.4883 13.7222 19.6563C12.537 19.8245 11.2707 19.8535 10.046 19.8535C7.61629 19.8535 5.02599 19.7147 3.16625 18.6347C2.21808 18.084 1.45718 17.2884 1.00542 16.1585C0.557117 15.0372 0.426526 13.6203 0.672197 11.842C1.08397 8.86126 2.12879 6.68102 3.75441 5.24934Z"
            fill="#64698B" />
        <g id="Union" filter="url(#filter0_d_4066_3175)">
            <path fill-rule="evenodd" clip-rule="evenodd"
                d="M5.53445 16.8528C5.64157 16.8528 5.74754 16.848 5.85216 16.8385C5.99957 16.8252 6.14715 16.8114 6.29516 16.8114H14.0638C14.0651 16.8114 14.0661 16.8103 14.0661 16.8091C14.066 16.8077 14.0672 16.8066 14.0686 16.8067C14.1979 16.8213 14.3293 16.8288 14.4625 16.8288C16.3646 16.8288 17.9065 15.303 17.9065 13.4208C17.9065 11.5386 16.4804 10.12 15.0865 10.4928C15.0606 10.4997 15.034 10.5068 15.0068 10.5141C14.8034 10.5683 14.5632 10.6324 14.3032 10.7093C13.6954 10.889 13.0273 10.7846 12.5429 10.3759C12.4626 10.3082 12.3763 10.2479 12.285 10.1958L11.4323 9.70941C10.544 9.20275 9.45369 9.20509 8.56762 9.71556L7.73326 10.1962C7.6434 10.248 7.55856 10.3081 7.47985 10.3756C7.03227 10.7595 6.41553 10.877 5.84788 10.7173C5.56769 10.6384 5.27092 10.5589 4.95845 10.4753C3.56456 10.1025 2.09045 11.5626 2.09045 13.4448C2.09045 15.327 3.63239 16.8528 5.53445 16.8528Z"
                fill="url(#paint0_linear_4066_3175)" />
        </g>
        <g id="Union (Stroke)" filter="url(#filter1_d_4066_3175)">
            <path fill-rule="evenodd" clip-rule="evenodd"
                d="M5.53445 16.1528C5.62047 16.1528 5.70539 16.1489 5.78906 16.1413C5.79589 16.1407 5.80281 16.1401 5.80983 16.1395C5.94691 16.127 6.1187 16.1114 6.29516 16.1114H13.9854C14.0378 16.1053 14.0919 16.1049 14.147 16.1111C14.2503 16.1228 14.3555 16.1288 14.4625 16.1288C15.9849 16.1288 17.2065 14.9095 17.2065 13.4208C17.2065 12.6532 16.9151 12.0064 16.5185 11.6003C16.1217 11.1941 15.6661 11.0624 15.2674 11.169L15.1872 11.1904C14.9832 11.2448 14.7515 11.3067 14.5017 11.3805C13.6977 11.6182 12.7782 11.4903 12.0915 10.9109C12.0437 10.8706 11.9924 10.8348 11.9382 10.8039L11.0854 10.3175C10.4131 9.93393 9.58776 9.93571 8.91706 10.3221L8.08269 10.8028C8.03054 10.8328 7.9813 10.8677 7.93562 10.9069C7.29769 11.4541 6.43488 11.6097 5.65824 11.3911C5.38311 11.3137 5.09061 11.2352 4.77758 11.1515C4.38519 11.0466 3.9165 11.1812 3.50164 11.6044C3.08963 12.0247 2.79045 12.6833 2.79045 13.4448C2.79045 14.9335 4.01203 16.1528 5.53445 16.1528ZM14.0638 16.8114C14.0651 16.8114 14.0661 16.8103 14.0661 16.8091C14.066 16.8077 14.0672 16.8066 14.0686 16.8067C14.0737 16.8073 14.0787 16.8079 14.0838 16.8084C14.2082 16.8219 14.3345 16.8288 14.4625 16.8288C14.5648 16.8288 14.666 16.8244 14.7661 16.8157C16.526 16.6636 17.9065 15.2018 17.9065 13.4208C17.9065 11.5386 16.4804 10.12 15.0865 10.4928L15.0068 10.5141C14.8034 10.5683 14.5632 10.6324 14.3032 10.7093C13.6954 10.889 13.0273 10.7846 12.5429 10.3759C12.4626 10.3082 12.3763 10.2479 12.285 10.1958L11.4323 9.70941C10.544 9.20275 9.45369 9.20509 8.56762 9.71556L7.73326 10.1962C7.6434 10.248 7.55856 10.3081 7.47985 10.3756C7.03227 10.7595 6.41553 10.877 5.84788 10.7173C5.56769 10.6384 5.27092 10.5589 4.95845 10.4753C3.56456 10.1025 2.09045 11.5626 2.09045 13.4448C2.09045 15.327 3.63239 16.8528 5.53445 16.8528C5.64157 16.8528 5.74754 16.848 5.85216 16.8385L5.86427 16.8374C6.00765 16.8244 6.1512 16.8114 6.29516 16.8114H14.0638Z"
                fill="url(#paint1_linear_4066_3175)" />
        </g>
        <path id="Vector 17 (Stroke)" fill-rule="evenodd" clip-rule="evenodd"
            d="M3.9062 12.1269C4.28332 11.7992 4.76939 11.6975 5.10212 11.7003C5.21258 11.7012 5.30137 11.7915 5.30044 11.9019C5.29952 12.0124 5.20923 12.1012 5.09878 12.1002C4.83394 12.098 4.45234 12.1823 4.16855 12.4288C3.89729 12.6645 3.68611 13.0737 3.79241 13.7909C3.80861 13.9001 3.73317 14.0018 3.6239 14.018C3.51464 14.0342 3.41293 13.9588 3.39674 13.8495C3.27358 13.0187 3.51654 12.4654 3.9062 12.1269Z"
            fill="white" />
        <g id="Vector 18 (Stroke)" filter="url(#filter2_d_4066_3175)">
            <path fill-rule="evenodd" clip-rule="evenodd"
                d="M13.1201 12.25C13.5343 12.25 13.8701 12.5858 13.8701 13V13.936C13.8701 14.3502 13.5343 14.686 13.1201 14.686C12.7059 14.686 12.3701 14.3502 12.3701 13.936V13C12.3701 12.5858 12.7059 12.25 13.1201 12.25Z"
                fill="white" />
        </g>
        <g id="Vector 19 (Stroke)" filter="url(#filter3_d_4066_3175)">
            <path fill-rule="evenodd" clip-rule="evenodd"
                d="M6.87988 12.25C7.2941 12.25 7.62988 12.5858 7.62988 13V13.936C7.62988 14.3502 7.2941 14.686 6.87988 14.686C6.46567 14.686 6.12988 14.3502 6.12988 13.936V13C6.12988 12.5858 6.46567 12.25 6.87988 12.25Z"
                fill="white" />
        </g>
    </g>
    <defs>
        <filter id="filter0_d_4066_3175" x="0.890454" y="8.13105" width="18.216" height="9.92148"
            filterUnits="userSpaceOnUse" color-interpolation-filters="sRGB">
            <feFlood flood-opacity="0" result="BackgroundImageFix" />
            <feColorMatrix in="SourceAlpha" type="matrix"
                values="0 0 0 0 0 0 0 0 0 0 0 0 0 0 0 0 0 0 127 0" result="hardAlpha" />
            <feOffset />
            <feGaussianBlur stdDeviation="0.6" />
            <feComposite in2="hardAlpha" operator="out" />
            <feColorMatrix type="matrix"
                values="0 0 0 0 0.233659 0 0 0 0 0.448234 0 0 0 0 1 0 0 0 0.2 0" />
            <feBlend mode="normal" in2="BackgroundImageFix" result="effect1_dropShadow_4066_3175" />
            <feBlend mode="normal" in="SourceGraphic" in2="effect1_dropShadow_4066_3175"
                result="shape" />
        </filter>
        <filter id="filter1_d_4066_3175" x="0.890454" y="8.13105" width="18.216" height="9.92148"
            filterUnits="userSpaceOnUse" color-interpolation-filters="sRGB">
            <feFlood flood-opacity="0" result="BackgroundImageFix" />
            <feColorMatrix in="SourceAlpha" type="matrix"
                values="0 0 0 0 0 0 0 0 0 0 0 0 0 0 0 0 0 0 127 0" result="hardAlpha" />
            <feOffset />
            <feGaussianBlur stdDeviation="0.6" />
            <feComposite in2="hardAlpha" operator="out" />
            <feColorMatrix type="matrix"
                values="0 0 0 0 0.233659 0 0 0 0 0.448234 0 0 0 0 1 0 0 0 0.2 0" />
            <feBlend mode="normal" in2="BackgroundImageFix" result="effect1_dropShadow_4066_3175" />
            <feBlend mode="normal" in="SourceGraphic" in2="effect1_dropShadow_4066_3175"
                result="shape" />
        </filter>
        <filter id="filter2_d_4066_3175" x="11.6501" y="11.53" width="2.94" height="3.87555"
            filterUnits="userSpaceOnUse" color-interpolation-filters="sRGB">
            <feFlood flood-opacity="0" result="BackgroundImageFix" />
            <feColorMatrix in="SourceAlpha" type="matrix"
                values="0 0 0 0 0 0 0 0 0 0 0 0 0 0 0 0 0 0 127 0" result="hardAlpha" />
            <feOffset />
            <feGaussianBlur stdDeviation="0.36" />
            <feComposite in2="hardAlpha" operator="out" />
            <feColorMatrix type="matrix" values="0 0 0 0 1 0 0 0 0 1 0 0 0 0 1 0 0 0 0.8 0" />
            <feBlend mode="normal" in2="BackgroundImageFix" result="effect1_dropShadow_4066_3175" />
            <feBlend mode="normal" in="SourceGraphic" in2="effect1_dropShadow_4066_3175"
                result="shape" />
        </filter>
        <filter id="filter3_d_4066_3175" x="5.40988" y="11.53" width="2.94" height="3.87555"
            filterUnits="userSpaceOnUse" color-interpolation-filters="sRGB">
            <feFlood flood-opacity="0" result="BackgroundImageFix" />
            <feColorMatrix in="SourceAlpha" type="matrix"
                values="0 0 0 0 0 0 0 0 0 0 0 0 0 0 0 0 0 0 127 0" result="hardAlpha" />
            <feOffset />
            <feGaussianBlur stdDeviation="0.36" />
            <feComposite in2="hardAlpha" operator="out" />
            <feColorMatrix type="matrix" values="0 0 0 0 1 0 0 0 0 1 0 0 0 0 1 0 0 0 0.8 0" />
            <feBlend mode="normal" in2="BackgroundImageFix" result="effect1_dropShadow_4066_3175" />
            <feBlend mode="normal" in="SourceGraphic" in2="effect1_dropShadow_4066_3175"
                result="shape" />
        </filter>
        <linearGradient id="paint0_linear_4066_3175" x1="2.73886" y1="10.2078" x2="15.1146"
            y2="18.0174" gradientUnits="userSpaceOnUse">
            <stop offset="0.025" stop-color="#EBFEFF" />
            <stop offset="0.339014" stop-color="#8CCFFF" />
            <stop offset="0.707502" stop-color="#B399FF" />
            <stop offset="1" stop-color="#BDA6FF" />
        </linearGradient>
        <linearGradient id="paint1_linear_4066_3175" x1="2.09045" y1="9.33105" x2="15.7647"
            y2="19.6822" gradientUnits="userSpaceOnUse">
            <stop stop-color="#00BAC6" />
            <stop offset="0.5" stop-color="#0067FF" />
            <stop offset="1" stop-color="#450FDE" />
        </linearGradient>
        <clipPath id="clip0_4066_3175">
            <rect width="20" height="20" fill="white" />
        </clipPath>
    </defs>
</svg>