<svg t="1749780679693" class="icon" viewBox="0 0 1024 1024" version="1.1"
    xmlns="http://www.w3.org/2000/svg" p-id="7034" width="24" height="24">
    <path
        d="M262.832851 649.648042m74.183103 19.877303l0 0q74.183103 19.877303 54.305801 94.060406l-19.877303 74.183103q-19.877303 74.183103-94.060406 54.305801l0 0q-74.183103-19.877303-54.305801-94.060406l19.877303-74.183103q19.877303-74.183103 94.060406-54.305801Z"
        fill="#1c1e21" p-id="7035"></path>
    <path
        d="M665.6 102.4c141.3888 0 256 114.6112 256 256v128a254.7968 254.7968 0 0 1-40.704 138.5728 152.9344 152.9344 0 0 0-41.728-41.2928l-2.5088-1.6896a152.2176 152.2176 0 0 0-224.9728 68.096L573.184 742.4H358.4C217.0112 742.4 102.4 627.7888 102.4 486.4V153.6a51.2 51.2 0 0 1 51.2-51.2h512z m125.44 512.9728c6.016 2.5088 11.776 5.6064 17.2032 9.216l2.5088 1.6896c16 10.6752 28.032 25.088 35.712 41.2672A255.104 255.104 0 0 1 665.6 742.4h-36.9408l30.2848-72.6272a101.0176 101.0176 0 0 1 132.096-54.4zM665.6 204.8h-230.4a153.6 153.6 0 0 0-153.4976 147.84L281.6 358.4v51.2a102.4 102.4 0 0 0 97.28 102.272L384 512h332.8a102.4 102.4 0 0 0 102.272-97.28L819.2 409.6v-51.2a153.6 153.6 0 0 0-153.6-153.6z"
        fill="#1c1e21" p-id="7036"></path>
    <path
        d="M807.0144 621.9264l2.5344 1.664a102.4 102.4 0 0 1 18.5088 154.5472l-76.16 82.7648a87.296 87.296 0 0 1-107.3152 16.7936 78.3872 78.3872 0 0 1-33.6384-98.304l46.7712-112.2816a101.0176 101.0176 0 0 1 149.2992-45.184z"
        fill="#1c1e21" p-id="7037"></path>
    <path
        d="M435.2 281.6m51.2 0l0 0q51.2 0 51.2 51.2l0 51.2q0 51.2-51.2 51.2l0 0q-51.2 0-51.2-51.2l0-51.2q0-51.2 51.2-51.2Z"
        fill="#1c1e21" p-id="7038"></path>
    <path
        d="M640 281.6m51.2 0l0 0q51.2 0 51.2 51.2l0 51.2q0 51.2-51.2 51.2l0 0q-51.2 0-51.2-51.2l0-51.2q0-51.2 51.2-51.2Z"
        fill="#1c1e21" p-id="7039"></path>
</svg>